<svg xmlns="http://www.w3.org/2000/svg" xmlns:xlink="http://www.w3.org/1999/xlink" version="1.1" x="0px" y="0px" viewBox="0 0 100 125" enable-background="new 0 0 100 100" xml:space="preserve"><g><path d="M82.812,100H18.479c-1.974,0-3.569-1.597-3.569-3.57V11.018H4.009c-1.975,0-3.57-1.596-3.57-3.57   c0-1.977,1.596-3.573,3.57-3.573h14.471c1.975,0,3.573,1.596,3.573,3.573v85.41h57.186V7.448c0-1.977,1.6-3.573,3.573-3.573h13.396   c1.975,0,3.573,1.596,3.573,3.573c0,1.975-1.599,3.57-3.573,3.57h-9.826V96.43C86.382,98.403,84.786,100,82.812,100z"/><path d="M72.089,84.818H30.274c-0.886,0-1.605-0.72-1.605-1.609V70.343c0-0.885,0.72-1.605,1.605-1.605h41.815   c0.889,0,1.605,0.721,1.605,1.605v12.866C73.694,84.099,72.978,84.818,72.089,84.818z M31.886,81.604h38.59v-9.65h-38.59V81.604z"/><path d="M72.089,64.713H30.274c-0.886,0-1.605-0.717-1.605-1.605V53.46c0-6.453,4.522-13.128,12.086-13.128   c1.596,0,3.291,0.295,5.042,0.879c7.007,2.329,9.476,0.71,15.099-3.387c2.856-2.083,5.116-3.036,7.076-3.036   c1.719,0,5.723,0.83,5.723,8.483v19.836C73.694,63.996,72.978,64.713,72.089,64.713z M31.886,61.499h38.59V43.271   c0-1.967-0.322-5.265-2.505-5.265c-0.853,0-2.415,0.398-4.999,2.279c-6.118,4.466-9.7,6.812-18.194,3.975   c-1.417-0.471-2.773-0.71-4.024-0.71c-6.121,0-8.868,5.792-8.868,9.91V61.499z"/><path d="M30.274,38.849c-0.289,0-0.578-0.076-0.83-0.232c-0.484-0.289-0.776-0.813-0.776-1.374v-6.433   c0-0.813,0.606-1.503,1.417-1.6l5.039-0.604c-0.378-4.2,1.009-10.719,8.507-13.636c3.984-1.542,8.795-1.005,12.566-0.252   c1.716,0.342,3.338,0.66,4.794,0.66c2.333,0,3.991-0.849,5.534-2.843c0.309-0.398,0.899-0.518,1.284-0.621   c0.371,0.003,1.615,0.153,1.892,2.014c0.514,3.563-1.925,18.851-14.565,22.679c-2.13,0.647-4.008,0.959-5.732,0.959   c-2.385,0-4.087-0.598-5.59-1.118c-1.782-0.624-3.348-1.065-5.531-0.621c-3.016,0.624-7.219,2.813-7.262,2.837   C30.788,38.79,30.53,38.849,30.274,38.849z M31.886,32.234v2.455c1.625-0.727,3.839-1.613,5.739-2.004   c2.933-0.617,5.255,0.037,7.25,0.727c2.448,0.859,5.132,1.396,9.325,0.123c8.563-2.595,11.513-11.721,12.196-16.472   c-2.907,1.928-6.769,1.616-10.826,0.81c-3.557-0.7-7.475-1.181-10.775,0.1c-8.178,3.181-6.34,11.316-6.256,11.655   c0.109,0.448,0.016,0.922-0.246,1.297c-0.262,0.378-0.67,0.627-1.125,0.68L31.886,32.234z"/></g><text x="0" y="115" fill="#000000" font-size="5px" font-weight="bold" font-family="'Helvetica Neue', Helvetica, Arial-Unicode, Arial, Sans-serif">Created by Hannah Coward</text><text x="0" y="120" fill="#000000" font-size="5px" font-weight="bold" font-family="'Helvetica Neue', Helvetica, Arial-Unicode, Arial, Sans-serif">from the Noun Project</text></svg>