<svg xmlns:x="http://ns.adobe.com/Extensibility/1.0/" xmlns:i="http://ns.adobe.com/AdobeIllustrator/10.0/" xmlns:graph="http://ns.adobe.com/Graphs/1.0/" xmlns="http://www.w3.org/2000/svg" xmlns:xlink="http://www.w3.org/1999/xlink" version="1.1" x="0px" y="0px" viewBox="0 0 64 80" enable-background="new 0 0 64 64" xml:space="preserve"><metadata><sfw xmlns="http://ns.adobe.com/SaveForWeb/1.0/"><slices/><sliceSourceBounds height="16384" width="16389" x="-8165" y="-8160" bottomLeftOrigin="true"/></sfw></metadata><g><path d="M37.067,11H38c0.553,0,1-0.448,1-1V6c0-0.552-0.447-1-1-1H26c-0.552,0-1,0.448-1,1v4c0,0.552,0.448,1,1,1h0.932   c-0.322,3.046-1.988,6.715-3.487,9.996C22.079,23.986,21,26.348,21,28v25c0,3.309,2.691,6,6,6h10c3.309,0,6-2.691,6-6V28   c0-1.652-1.079-4.014-2.445-7.004C39.056,17.715,37.39,14.046,37.067,11z M27,7h10v2H27V7z M41,53c0,2.206-1.794,4-4,4H27   c-2.206,0-4-1.794-4-4V28c0-1.217,1.1-3.625,2.264-6.173c1.594-3.488,3.381-7.4,3.689-10.827h6.094   c0.308,3.427,2.095,7.339,3.688,10.827C39.9,24.375,41,26.783,41,28V53z"/></g><text x="0" y="79" fill="#000000" font-size="5px" font-weight="bold" font-family="'Helvetica Neue', Helvetica, Arial-Unicode, Arial, Sans-serif">Created by Ralf Schmitzer</text><text x="0" y="84" fill="#000000" font-size="5px" font-weight="bold" font-family="'Helvetica Neue', Helvetica, Arial-Unicode, Arial, Sans-serif">from the Noun Project</text></svg>