<svg xmlns="http://www.w3.org/2000/svg" xmlns:xlink="http://www.w3.org/1999/xlink" version="1.1" x="0px" y="0px" viewBox="0 0 512 640" enable-background="new 0 0 512 512" xml:space="preserve"><g><path d="M470.569,0.067c0-0.031-0.031-0.031-0.031-0.063L359.513,111.017L137.508,333.056l0,0l0,0   c0.031,0.031,0.031,0.047,0.063,0.063c0.031,0.063,0.094,0.094,0.156,0.155l110.807,110.81l166.54-166.479   C507.005,185.655,517.505,77.659,470.569,0.067z"/><path d="M26.669,443.958c-0.344,0.344-0.719,0.656-1.063,1.016c-15.312,15.327-15.312,40.188,0,55.516   c15.312,15.343,40.186,15.343,55.497,0l0,0l0.031,0.03l84.152-84.169l-55.498-55.515L26.669,443.958z"/></g><text x="0" y="527" fill="#000000" font-size="5px" font-weight="bold" font-family="'Helvetica Neue', Helvetica, Arial-Unicode, Arial, Sans-serif">Created by lastspark</text><text x="0" y="532" fill="#000000" font-size="5px" font-weight="bold" font-family="'Helvetica Neue', Helvetica, Arial-Unicode, Arial, Sans-serif">from the Noun Project</text></svg>