<svg xmlns="http://www.w3.org/2000/svg" xmlns:xlink="http://www.w3.org/1999/xlink" version="1.1" x="0px" y="0px" viewBox="0 0 512 640" enable-background="new 0 0 512 512" xml:space="preserve"><g><g><path d="M96.382,374.621l-87.808,87.84l0,0c-5.266,5.25-8.5,12.5-8.5,20.531c0,16.031,12.984,28.998,29.014,28.998    c8.016,0,15.234-3.25,20.499-8.498l87.824-87.842c-7.563-6-14.781-12.471-21.671-19.342    C108.835,389.402,102.398,382.184,96.382,374.621z"/></g><g><path d="M420.289,163.41c-6.779-16.03-16.499-30.438-28.89-42.842c-12.39-12.437-26.812-22.124-42.857-28.905    c-16.606-7.031-34.248-10.594-52.449-10.594c-18.203,0-35.842,3.563-52.465,10.594c-16.063,6.781-30.468,16.468-42.842,28.905    c-12.405,12.406-22.108,26.812-28.905,42.842c-7.031,16.625-10.562,34.28-10.562,52.467c0,18.218,3.531,35.874,10.562,52.499    c6.797,16.031,16.5,30.467,28.905,42.842c12.375,12.375,26.78,22.125,42.842,28.906c16.625,7.031,34.264,10.592,52.465,10.592    s35.843-3.561,52.449-10.592c16.047-6.781,30.47-16.531,42.857-28.906c12.391-12.375,22.107-26.811,28.89-42.842    c7.03-16.625,10.594-34.281,10.594-52.499C430.882,197.689,427.319,180.035,420.289,163.41z"/></g><g><path d="M296.091,0.009c-119.211,0-215.816,96.653-215.816,215.867c0,119.247,96.605,215.899,215.818,215.899    c119.195,0,215.833-96.652,215.833-215.899C511.925,96.663,415.289,0.009,296.091,0.009z M296.091,372.902    c-86.698,0-156.96-70.313-156.96-157.026c0-86.684,70.262-156.963,156.96-156.963c86.685,0,156.962,70.279,156.962,156.963    C453.053,302.592,382.775,372.902,296.091,372.902z"/></g></g><text x="0" y="527" fill="#000000" font-size="5px" font-weight="bold" font-family="'Helvetica Neue', Helvetica, Arial-Unicode, Arial, Sans-serif">Created by lastspark</text><text x="0" y="532" fill="#000000" font-size="5px" font-weight="bold" font-family="'Helvetica Neue', Helvetica, Arial-Unicode, Arial, Sans-serif">from the Noun Project</text></svg>