<svg xmlns="http://www.w3.org/2000/svg" xmlns:xlink="http://www.w3.org/1999/xlink" version="1.1" x="0px" y="0px" viewBox="0 0 100 125" style="enable-background:new 0 0 100 100;" xml:space="preserve"><g><path d="M90.2,35.3H55.1l-2.8-4.3c-1-1.6-3.2-2.1-4.8-1c-1,0.6-1.5,1.6-1.6,2.7c0,0,0,0,0,0v0c0,0.1,0,0.2,0,0.3v2.4H9.8   c-2.2,0-3.9,1.8-3.9,3.9v37.5c0,2.2,1.8,3.9,3.9,3.9h80.4c2.2,0,3.9-1.8,3.9-3.9V39.2C94.1,37,92.4,35.3,90.2,35.3z M48.6,31.6   c0.7-0.4,1.6-0.2,2,0.4l11.9,18.4c0.4,0.7,0.2,1.6-0.4,2c-0.3,0.2-0.7,0.3-1.1,0.2c-0.4-0.1-0.7-0.3-0.9-0.6l-9.2-14.2l-2.7-4.2   c-0.1-0.2-0.2-0.4-0.2-0.7v-0.3C48,32.2,48.2,31.8,48.6,31.6z M47.9,37.3h0.2l1,1.6l2.6,4c-0.2,0.8-1,1.4-1.9,1.4   c-1.1,0-1.9-0.9-1.9-1.9V37.3z M54.4,48.6c0-0.5,0.1-0.9,0.2-1.4l3.8,5.9c0.5,0.8,1.3,1.3,2.2,1.5c0.2,0.1,0.5,0.1,0.7,0.1   c0.7,0,1.3-0.2,1.9-0.6c1.6-1,2.1-3.2,1-4.8l-4.7-7.2c0.5-0.1,1-0.2,1.5-0.2h18.1c3.7,0,6.7,3,6.7,6.7v18.7c0,3.7-3,6.7-6.7,6.7   H61.1c-3.7,0-6.7-3-6.7-6.7V48.6z M92.1,76.7c0,1.1-0.9,1.9-1.9,1.9H9.8c-1.1,0-1.9-0.9-1.9-1.9V39.2c0-1.1,0.9-1.9,1.9-1.9h36.1v5   c0,2.2,1.8,3.9,3.9,3.9c1.2,0,2.4-0.6,3.1-1.5l0.2,0.3c-0.5,1.1-0.8,2.3-0.8,3.6v18.7c0,4.8,3.9,8.7,8.7,8.7h18.1   c4.8,0,8.7-3.9,8.7-8.7V48.6c0-4.8-3.9-8.7-8.7-8.7H61.1c-0.9,0-1.8,0.1-2.7,0.4l-2-3.1h33.8c1.1,0,1.9,0.9,1.9,1.9V76.7z"/><path d="M63.6,67.8c3.3,0,6-2.7,6-6c0-3.3-2.7-6-6-6c-3.3,0-6,2.7-6,6C57.5,65.1,60.2,67.8,63.6,67.8z M63.6,57.7c2.2,0,4,1.8,4,4   c0,2.2-1.8,4-4,4c-2.2,0-4-1.8-4-4C59.5,59.5,61.3,57.7,63.6,57.7z"/><circle cx="63.6" cy="59.1" r="0.8"/><circle cx="63.6" cy="64.4" r="0.8"/><circle cx="66.2" cy="61.7" r="0.8"/><circle cx="60.9" cy="61.7" r="0.8"/><ellipse transform="matrix(0.7071 -0.7071 0.7071 0.7071 -23.1716 63.797)" cx="65.4" cy="59.9" rx="0.8" ry="0.8"/><ellipse transform="matrix(0.7071 -0.7071 0.7071 0.7071 -26.884 62.2616)" cx="61.7" cy="63.6" rx="0.8" ry="0.8"/><ellipse transform="matrix(0.7071 -0.7071 0.7071 0.7071 -25.7966 64.8867)" cx="65.4" cy="63.6" rx="0.8" ry="0.8"/><ellipse transform="matrix(0.7071 -0.7071 0.7071 0.7071 -24.2589 61.172)" cx="61.7" cy="59.9" rx="0.8" ry="0.8"/><path d="M40.8,44.7H17.1c-0.6,0-1,0.4-1,1s0.4,1,1,1h23.7c0.6,0,1-0.4,1-1S41.3,44.7,40.8,44.7z"/><path d="M40.8,50.8H17.1c-0.6,0-1,0.4-1,1s0.4,1,1,1h23.7c0.6,0,1-0.4,1-1S41.3,50.8,40.8,50.8z"/><path d="M40.8,57H17.1c-0.6,0-1,0.4-1,1s0.4,1,1,1h23.7c0.6,0,1-0.4,1-1S41.3,57,40.8,57z"/><path d="M40.8,63.1H17.1c-0.6,0-1,0.4-1,1s0.4,1,1,1h23.7c0.6,0,1-0.4,1-1S41.3,63.1,40.8,63.1z"/><path d="M40.8,69.2H17.1c-0.6,0-1,0.4-1,1s0.4,1,1,1h23.7c0.6,0,1-0.4,1-1S41.3,69.2,40.8,69.2z"/><path d="M75.6,48.6c2,0,3.7,1.6,3.7,3.7c0,0.6,0.4,1,1,1s1-0.4,1-1c0-3.1-2.5-5.7-5.7-5.7c-0.6,0-1,0.4-1,1S75.1,48.6,75.6,48.6z"/><path d="M80.4,63.4c-0.5-0.1-1.1,0.3-1.1,0.8c-0.2,1.6-1.4,2.8-3,3.1c-0.5,0.1-0.9,0.6-0.8,1.2c0.1,0.5,0.5,0.8,1,0.8   c0.1,0,0.1,0,0.2,0c2.4-0.4,4.3-2.3,4.6-4.8C81.3,64,81,63.4,80.4,63.4z"/></g><text x="0" y="115" fill="#000000" font-size="5px" font-weight="bold" font-family="'Helvetica Neue', Helvetica, Arial-Unicode, Arial, Sans-serif">Created by Artem  Kovyazin</text><text x="0" y="120" fill="#000000" font-size="5px" font-weight="bold" font-family="'Helvetica Neue', Helvetica, Arial-Unicode, Arial, Sans-serif">from the Noun Project</text></svg>