<svg xmlns="http://www.w3.org/2000/svg" xmlns:xlink="http://www.w3.org/1999/xlink" version="1.1" x="0px" y="0px" viewBox="0 0 100 125" enable-background="new 0 0 100 100" xml:space="preserve"><g><path d="M35.718,36.504L13.372,23.315c-1.773-1.046-4.059-0.458-5.104,1.315c-1.047,1.773-0.458,4.059,1.316,5.106L31.93,42.925   L35.718,36.504z M15.653,28.99c-0.381,0.646-1.212,0.86-1.856,0.479c-0.646-0.38-0.859-1.212-0.479-1.857   c0.382-0.645,1.213-0.859,1.858-0.479C15.82,27.514,16.034,28.345,15.653,28.99z M22.214,32.862   c-0.381,0.645-1.212,0.859-1.857,0.479c-0.645-0.381-0.858-1.213-0.479-1.858c0.38-0.645,1.212-0.859,1.856-0.478   C22.381,31.385,22.595,32.217,22.214,32.862z M28.774,36.734c-0.382,0.645-1.215,0.859-1.859,0.479   c-0.645-0.381-0.857-1.212-0.478-1.858c0.381-0.645,1.212-0.86,1.857-0.479C28.94,35.257,29.154,36.089,28.774,36.734z"/><path d="M91.333,72.376c0.26-0.164,0.511-0.353,0.679-0.636c0.483-0.821,0.21-1.879-0.611-2.364   c-0.001-0.001-0.006-0.002-0.01-0.004c0.005,0,0.01,0,0.013,0L37.087,37.313l-8.393,14.219c-0.499,0.847-0.417,1.79,0.328,2.386   c0.192,0.109,0.519,0.337,0.707,0.446c19.159,10.893,39.818,16.823,60.479,18.189C90.359,72.563,91.028,72.567,91.333,72.376z"/><path d="M30.461,74.88c0,1.283,1.043,2.323,2.325,2.323h28.401v-4.646H32.786C31.504,72.557,30.461,73.597,30.461,74.88z"/><rect x="62.496" y="72.557" width="4.617" height="4.646"/><rect x="68.422" y="72.557" width="3.062" height="4.646"/><rect x="72.793" y="72.557" width="3.062" height="4.646"/></g><text x="0" y="115" fill="#000000" font-size="5px" font-weight="bold" font-family="'Helvetica Neue', Helvetica, Arial-Unicode, Arial, Sans-serif">Created by Gabriele Garofalo</text><text x="0" y="120" fill="#000000" font-size="5px" font-weight="bold" font-family="'Helvetica Neue', Helvetica, Arial-Unicode, Arial, Sans-serif">from the Noun Project</text></svg>