<svg xmlns:x="http://ns.adobe.com/Extensibility/1.0/" xmlns:i="http://ns.adobe.com/AdobeIllustrator/10.0/" xmlns:graph="http://ns.adobe.com/Graphs/1.0/" xmlns="http://www.w3.org/2000/svg" xmlns:xlink="http://www.w3.org/1999/xlink" version="1.1" x="0px" y="0px" viewBox="0 0 64 80" enable-background="new 0 0 64 64" xml:space="preserve"><metadata><sfw xmlns="http://ns.adobe.com/SaveForWeb/1.0/"><slices/><sliceSourceBounds height="16384" width="16389" x="-8165" y="-8160" bottomLeftOrigin="true"/></sfw></metadata><g><g><path d="M58,13H6c-0.552,0-1,0.448-1,1v32c0,0.553,0.448,1,1,1h9v3c0,0.553,0.448,1,1,1s1-0.447,1-1v-3h30v3c0,0.553,0.447,1,1,1    s1-0.447,1-1v-3h9c0.553,0,1-0.447,1-1V14C59,13.448,58.553,13,58,13z M57,45H7V15h50V45z"/><path d="M10,43h34c0.553,0,1-0.447,1-1V18c0-0.552-0.447-1-1-1H10c-0.552,0-1,0.448-1,1v24C9,42.553,9.448,43,10,43z M11,19h32v22    H11V19z"/><path d="M51,25c2.206,0,4-1.794,4-4s-1.794-4-4-4s-4,1.794-4,4S48.794,25,51,25z M51,19c1.103,0,2,0.897,2,2s-0.897,2-2,2    s-2-0.897-2-2S49.897,19,51,19z"/><rect x="48" y="28" width="2" height="2"/><rect x="52" y="28" width="2" height="2"/><rect x="48" y="32" width="2" height="2"/><rect x="52" y="32" width="2" height="2"/><rect x="48" y="36" width="2" height="2"/><rect x="52" y="36" width="2" height="2"/><rect x="48" y="40" width="2" height="2"/><rect x="52" y="40" width="2" height="2"/><path d="M38.707,21.293c-0.391-0.391-1.023-0.391-1.414,0s-0.391,1.023,0,1.414l2,2C39.488,24.903,39.744,25,40,25    s0.512-0.098,0.707-0.293c0.391-0.391,0.391-1.023,0-1.414L38.707,21.293z"/><path d="M34.707,23.293l-2-2c-0.391-0.391-1.023-0.391-1.414,0s-0.391,1.023,0,1.414l2,2C33.488,24.903,33.744,25,34,25    s0.512-0.098,0.707-0.293C35.098,24.317,35.098,23.684,34.707,23.293z"/><path d="M36.707,25.293c-0.391-0.391-1.023-0.391-1.414,0s-0.391,1.023,0,1.414l4,4C39.488,30.903,39.744,31,40,31    s0.512-0.098,0.707-0.293c0.391-0.391,0.391-1.023,0-1.414L36.707,25.293z"/></g></g><text x="0" y="79" fill="#000000" font-size="5px" font-weight="bold" font-family="'Helvetica Neue', Helvetica, Arial-Unicode, Arial, Sans-serif">Created by Ralf Schmitzer</text><text x="0" y="84" fill="#000000" font-size="5px" font-weight="bold" font-family="'Helvetica Neue', Helvetica, Arial-Unicode, Arial, Sans-serif">from the Noun Project</text></svg>