<svg xmlns="http://www.w3.org/2000/svg" xmlns:xlink="http://www.w3.org/1999/xlink" version="1.1" x="0px" y="0px" viewBox="0 0 100 125" enable-background="new 0 0 100 100" xml:space="preserve"><g><path fill="#000000" d="M70.5,39.4c0.3-3.9,5.4-7.3,4.1-9.9c-1.1-2.2-7.8-7.9-9.8-9.6c-0.4-0.3-0.9-0.5-1.4-0.5H51.3   c-0.5,0-1,0.2-1.4,0.5c-2,1.7-8.7,7.4-9.8,9.6c-1.3,2.6,3.7,6,4.1,9.9S37,62.8,39.9,88.5c0.7,3.8,4,6.5,7.8,6.5h10.3h1.7h7.3   c3.8,0,7.1-2.7,7.8-6.5v0C77.6,62.8,70.1,43.3,70.5,39.4z M72.3,88.1c-0.5,2.6-2.8,4.4-5.4,4.4h-7.3h-1.7H47.7   c-2.6,0-4.9-1.9-5.4-4.4c-2-18.3,1.4-33.6,3.2-41.8c0.8-3.6,1.3-5.8,1.1-7.2c-0.2-2.5-1.7-4.6-2.8-6.3c-0.5-0.8-1.3-1.9-1.4-2.4   c0.6-1.1,3.9-4.3,9.1-8.6h11.9c5.2,4.3,8.4,7.6,9.1,8.6c-0.1,0.5-0.9,1.7-1.4,2.4c-1.2,1.7-2.6,3.8-2.8,6.3   c-0.1,1.4,0.4,3.6,1.1,7.2C71,54.6,74.3,69.9,72.3,88.1z"/><path fill="#000000" d="M52.9,17.7h8.7c1.1,0,2-0.9,2-2v-1.6c0-1.1-0.9-2-2-2h-8.7c-1.1,0-2,0.9-2,2v1.6   C50.9,16.9,51.8,17.7,52.9,17.7z"/><path fill="#000000" d="M53.7,8.5c1,0.6,0.9,2.3,0.9,2.3h0.1h5h0.1c0,0-0.1-1.7,0.9-2.3c0.3-0.2,0.4-0.4,0.4-0.8   c0-0.2-0.1-0.5-0.3-0.6l-1.8-1.7C59,5.1,58.6,5,58.3,5h-2h0c-0.4,0-0.7,0.1-1,0.4l-1.8,1.7c-0.2,0.2-0.3,0.4-0.3,0.6   C53.3,8.1,53.5,8.3,53.7,8.5z"/><path fill="#000000" d="M64.4,45.9H50c-1.3,0-2.4,0.9-2.7,2.2c-1.3,6.5-4.3,23.3-2.6,37.3c0.3,2.3,2.4,4.2,4.8,4.2h7.8h1.2h7   c2.3,0,4.5-1.9,4.7-4.2c1.7-14.1-1.7-31-3.2-37.5C66.8,46.7,65.7,45.9,64.4,45.9z"/><polygon fill="#000000" points="28.8,22.5 27.4,27.6 22.2,29 27.4,30.4 28.8,35.5 30.2,30.4 35.3,29 30.2,27.6  "/><polygon fill="#000000" points="35.6,14.2 33.6,6.8 31.6,14.2 24.1,16.2 31.6,18.3 33.6,25.7 35.6,18.3 43,16.2  "/></g><text x="0" y="115" fill="#000000" font-size="5px" font-weight="bold" font-family="'Helvetica Neue', Helvetica, Arial-Unicode, Arial, Sans-serif">Created by parkjisun</text><text x="0" y="120" fill="#000000" font-size="5px" font-weight="bold" font-family="'Helvetica Neue', Helvetica, Arial-Unicode, Arial, Sans-serif">from the Noun Project</text></svg>