<svg xmlns="http://www.w3.org/2000/svg" xmlns:xlink="http://www.w3.org/1999/xlink" version="1.1" x="0px" y="0px" viewBox="0 0 90 112.5" enable-background="new 0 0 90 90" xml:space="preserve"><g><path d="M7,17.5v55c0,0.7,0.5,1.2,1.2,1.2h74.2c0.7,0,1.2-0.5,1.2-1.2v-55c0-0.7-0.5-1.2-1.2-1.2H8.2C7.6,16.3,7,16.8,7,17.5z    M9.5,18.7h34.3v4.2H33.3c-0.7,0-1.2,0.5-1.2,1.2s0.5,1.2,1.2,1.2h24c0.7,0,1.2-0.5,1.2-1.2s-0.5-1.2-1.2-1.2H46.2v-4.2h35.1v52.5   H9.5V18.7z"/><path d="M31,44.6c-0.7,0-1.2,0.5-1.2,1.2c0,0.7,0.5,1.2,1.2,1.2h3.1v4.5c0,0.2,0.1,0.4,0.2,0.6c-0.4,0.1-0.8,0.4-1,0.6   c-0.3,0.2-0.6,0.6-0.9,1h-7.5c-0.3-0.4-0.6-0.7-1-1c-0.3-0.2-0.7-0.5-1.2-0.6c0.1-0.2,0.2-0.4,0.2-0.6V47h3.1   c0.7,0,1.2-0.5,1.2-1.2c0-0.7-0.5-1.2-1.2-1.2h-8.6c-0.7,0-1.2,0.5-1.2,1.2c0,0.7,0.5,1.2,1.2,1.2h3.1v4.5c0,0.2,0.1,0.4,0.2,0.6   c-0.4,0.1-0.8,0.4-1,0.6c-0.3,0.2-0.6,0.6-0.9,1H13c-0.7,0-1.2,0.5-1.2,1.2v3.4c0,0.7,0.5,1.2,1.2,1.2c0.7,0,1.2-0.5,1.2-1.2v-2.1   h3.1c-0.9,2.3-1.2,5-1.4,6.3h-0.3c-0.7,0-1.2,0.5-1.2,1.2c0,0.7,0.5,1.2,1.2,1.2h1.5c0.7,0,1.2-0.5,1.2-1.2c0-0.1,0-0.1,0-0.2   c0-0.1,0-0.1,0-0.2c0.1-1.5,0.7-5.1,1.7-7.2h3.5c0.9,1.9,1.3,5.1,1.4,7.2c0,0.1,0,0.1,0,0.2c0,0.1,0,0.1,0,0.2   c0,0.7,0.5,1.2,1.2,1.2h4.4c0.5,0,0.9-0.3,1.1-0.7c0.3-0.2,0.5-0.5,0.5-0.9c0.1-1.5,0.7-5.1,1.7-7.2h3.5c0.9,1.9,1.3,5.1,1.4,7.2   c0,0.1,0,0.1,0,0.2c0,0.1,0,0.1,0,0.2c0,0.7,0.5,1.2,1.2,1.2h15.4c0.7,0,1.2-0.5,1.2-1.2c0-0.6-0.4-1-0.9-1.2c0,0-0.1,0-0.1,0   c-3.8-0.9-7-3.2-9-6.4H71c-2,3.1-5.2,5.5-9,6.4c-0.7,0.1-1.1,0.8-0.9,1.5c0.1,0.6,0.6,1,1.2,1c0.1,0,0.2,0,0.3,0c0,0,0,0,0,0   c0.1,0,0.1,0,0.2,0h15.1c0.7,0,1.2-0.5,1.2-1.2c0-0.7-0.5-1.2-1.2-1.2h-9.6c2.4-1.6,4.4-3.8,5.7-6.3h2.6v2.1c0,0.7,0.5,1.2,1.2,1.2   c0.7,0,1.2-0.5,1.2-1.2v-3.4c0-0.7-0.5-1.2-1.2-1.2h-2.8c0.6-1.7,0.9-3.6,0.9-5.5c0-9.4-7.7-17.1-17.1-17.1   c-9.4,0-17.1,7.7-17.1,17.1c0,1.9,0.3,3.7,0.9,5.5h-4c-0.3-0.4-0.6-0.7-1-1c-0.3-0.2-0.7-0.5-1.2-0.6c0.1-0.2,0.2-0.4,0.2-0.6V47   h3.1c0.7,0,1.2-0.5,1.2-1.2c0-0.7-0.5-1.2-1.2-1.2H31z M45.1,53.7c-0.7-1.7-1.1-3.5-1.1-5.5c0-8.1,6.6-14.6,14.6-14.6   c8.1,0,14.6,6.6,14.6,14.6c0,1.9-0.4,3.8-1.1,5.5H45.1z M39.8,56.1h3.7c1.3,2.6,3.3,4.7,5.7,6.3H41C40.9,61.1,40.7,58.4,39.8,56.1z    M31.1,56.1c-0.9,2.3-1.2,5-1.4,6.3h-2.4c-0.1-1.4-0.3-4-1.2-6.3H31.1z"/><path d="M82.4,8.9H8.2C7.6,8.9,7,8.3,7,7.7s0.5-1.2,1.2-1.2h74.2c0.7,0,1.2,0.5,1.2,1.2S83.1,8.9,82.4,8.9z"/><path d="M8.2,80.7h74.2c0.7,0,1.2,0.5,1.2,1.2c0,0.7-0.5,1.2-1.2,1.2H8.2c-0.7,0-1.2-0.5-1.2-1.2C7,81.2,7.6,80.7,8.2,80.7z"/></g><text x="0" y="105" fill="#000000" font-size="5px" font-weight="bold" font-family="'Helvetica Neue', Helvetica, Arial-Unicode, Arial, Sans-serif">Created by Miguel Olivera Galán</text><text x="0" y="110" fill="#000000" font-size="5px" font-weight="bold" font-family="'Helvetica Neue', Helvetica, Arial-Unicode, Arial, Sans-serif">from the Noun Project</text></svg>