<svg xmlns="http://www.w3.org/2000/svg" xmlns:xlink="http://www.w3.org/1999/xlink" version="1.1" x="0px" y="0px" viewBox="0 0 612 694.375" enable-background="new 0 0 612 555.5" xml:space="preserve"><g><path fill="#000000" d="M534.4,176.9c11.8-6.2,30.9-8.7,30.5-36.3c-0.5-30.3-23.4-87.7-111.9-87.7c-88.5,0-111.9,57.4-111.9,87.7   c0,21,18.8,36.3,36.1,40.3c0,0-42.6,158.8-42.6,195.6c0,31.2,0,126.3,54.4,126.3H517c54.4,0,54.4-95.1,54.4-126.3   C571.4,339.7,534.4,176.9,534.4,176.9z M364.3,140.6c0-2.6,1-63.8,88.7-63.8c87.6,0,88.6,61.2,88.6,63.8   c0,14.6-16.3,20.3-16.9,20.5l-14,5.8c0,0,14.5,54.3,14.7,54.8l-135.5,0.7c0.1-0.5,0.3-0.9,0.4-1.4l17.2-53.4   C406.6,167.3,364.3,155.2,364.3,140.6z M517,478.9h-64h-64.1c-14.2,0-31.1-17.8-31.1-102.4c0-27.1,19.1-107.4,29.8-146.4l139.7-0.6   c10.6,39,20.8,119.8,20.8,146.9C548.1,461.1,531.2,478.9,517,478.9z"/><path fill="#000000" d="M453,116.9c4.2,0,14.1-5.3,14.1-11.4c0-6.1-9.8-6.8-14.1-6.8s-14.1,0.7-14.1,6.8   C438.9,111.6,448.7,116.9,453,116.9z"/><polygon fill="#000000" points="411.1,451.3 396.1,425.3 411.1,399.3 441.1,399.3 456.1,425.3 441.1,451.3  "/><polygon fill="#000000" points="508.5,435.6 499.9,420.7 508.5,405.7 525.8,405.7 534.4,420.7 525.8,435.6  "/><polygon fill="#000000" points="467.5,420.7 455.2,399.3 467.5,378 492.2,378 504.5,399.3 492.2,420.7  "/><polygon fill="#000000" points="468.3,471.3 456.7,451.2 468.3,431.2 491.4,431.2 503,451.2 491.4,471.3  "/><polygon fill="#000000" points="376.5,414.2 367.9,399.3 376.5,384.4 393.8,384.4 402.4,399.3 393.8,414.2  "/><path fill="#000000" d="M143.5,108.7c4.1-1.1,12.3-8.6,10.8-14.5c-1.5-5.9-11.2-4.1-15.3-3.1s-13.5,4.2-11.9,10.1   C128.6,107.2,139.4,109.8,143.5,108.7z"/><path fill="#000000" d="M184.7,99.1c4.2,0.2,14.3-4.5,14.7-10.6c0.3-6.1-9.5-7.3-13.7-7.6c-4.2-0.2-14.1-0.1-14.4,6   C171,93.1,180.5,98.9,184.7,99.1z"/><path fill="#000000" d="M223.4,108.7c4.1,1.2,15-1.1,16.7-6.9c1.7-5.9-7.5-9.3-11.6-10.5c-4.1-1.2-13.7-3.3-15.4,2.5   C211.3,99.7,219.3,107.5,223.4,108.7z"/></g><g><polygon fill="#000000" points="118.6,221.7 248.7,221.7 247.3,213.7 120,213.7  "/><path fill="#000000" d="M248.4,221.7c10,34,34.4,126.6,34.4,156.2c0,85-17.4,102.8-32,102.8h-66.1h-66.1c-14.6,0-32-17.8-32-102.8   c0-29.6,44.8-211.5,44.8-211.5S98,161.9,93.2,141c-0.6-2.6,1-68.1,91.4-68.1l0-20c-91.3,0-113.3,57.7-115.5,88.1   c-1.4,20.3,24.3,33.9,41.3,38.9c0,0-48,161.1-48,198c0,31.4,0,126.9,56.1,126.9h132.1c56.1,0,56.1-95.5,56.1-126.9   c0-37-49.3-199-49.3-199c14-1.5,42.6-16.8,42.6-37.9c0-30.5-24.1-88.1-115.5-88.1l0,20c90.4,0,91.5,65.5,91.4,68.1   c-0.6,22.4-40.1,23.9-40.1,23.9"/><path d="M162,391.8h-34.2l-17.1,29.6l17.1,29.6H162l17.1-29.6L162,391.8z M160.9,449.1h-31.9l-16-27.7l16-27.6h31.9l16,27.6   L160.9,449.1z"/><path d="M211,365.7h-23.4L175.9,386l11.7,20.2H211l11.7-20.2L211,365.7z M210.2,404.8h-21.8L177.5,386l10.9-18.9h21.8l10.9,18.9   L210.2,404.8z"/><path d="M206.6,421.4h-14.7l-7.4,12.7l7.4,12.7h14.7l7.4-12.7L206.6,421.4z M206.2,446.1h-13.7l-6.9-11.9l6.9-11.9h13.7l6.9,11.9   L206.2,446.1z"/><path d="M258.3,401.2h-23.4l-11.7,20.2l11.7,20.2h23.4l11.7-20.2L258.3,401.2z M257.5,440.3h-21.8l-10.9-18.9l10.9-18.9h21.8   l10.9,18.9L257.5,440.3z"/><path d="M162.2,341.7h-23.4l-11.7,20.2l11.7,20.2h23.4l11.7-20.2L162.2,341.7z M161.4,380.8h-21.8l-10.9-18.9l10.9-18.9h21.8   l10.9,18.9L161.4,380.8z"/></g><text x="0" y="570.5" fill="#000000" font-size="5px" font-weight="bold" font-family="'Helvetica Neue', Helvetica, Arial-Unicode, Arial, Sans-serif">Created by gayatri</text><text x="0" y="575.5" fill="#000000" font-size="5px" font-weight="bold" font-family="'Helvetica Neue', Helvetica, Arial-Unicode, Arial, Sans-serif">from the Noun Project</text></svg>