<svg xmlns="http://www.w3.org/2000/svg" xmlns:xlink="http://www.w3.org/1999/xlink" version="1.1" x="0px" y="0px" viewBox="0 0 48 60" enable-background="new 0 0 48 48" xml:space="preserve"><g><path d="M36.033,48H11.968c-4.436,0-8.044-3.456-8.044-7.703v-15.95c0-0.552,0.448-1,1-1h38.153c0.553,0,1,0.448,1,1v15.95   C44.077,44.544,40.469,48,36.033,48z M5.924,25.348v14.949c0,3.145,2.711,5.703,6.044,5.703h24.065   c3.333,0,6.044-2.559,6.044-5.703V25.348H5.924z"/><path d="M43.174,25.347H4.826c-0.309,0-0.6-0.143-0.79-0.386c-0.189-0.244-0.256-0.562-0.179-0.861   C5.622,17.179,14.093,12.155,24,12.155c9.907,0,18.379,5.024,20.143,11.945c0.076,0.299,0.011,0.617-0.179,0.861   C43.774,25.204,43.482,25.347,43.174,25.347z M6.208,23.347h35.584c-2.209-5.396-9.417-9.192-17.792-9.192   C15.625,14.155,8.418,17.951,6.208,23.347z"/><path d="M47,25.348H1c-0.552,0-1-0.448-1-1s0.448-1,1-1h46c0.553,0,1,0.448,1,1S47.553,25.348,47,25.348z"/><path d="M27.417,11.683h-6.833c-0.552,0-1-0.448-1-1s0.448-1,1-1h6.833c0.553,0,1,0.448,1,1S27.97,11.683,27.417,11.683z"/><g><path d="M27.962,8.385c-0.553,0-1-0.448-1-1V3.167c0-0.552,0.447-1,1-1s1,0.448,1,1v4.218C28.962,7.937,28.515,8.385,27.962,8.385    z"/><path d="M24,8.385c-0.552,0-1-0.448-1-1V1c0-0.552,0.448-1,1-1c0.553,0,1,0.448,1,1v6.385C25,7.937,24.553,8.385,24,8.385z"/><path d="M20.039,8.385c-0.552,0-1-0.448-1-1V3.167c0-0.552,0.448-1,1-1s1,0.448,1,1v4.218C21.039,7.937,20.591,8.385,20.039,8.385    z"/></g></g><text x="0" y="63" fill="#000000" font-size="5px" font-weight="bold" font-family="'Helvetica Neue', Helvetica, Arial-Unicode, Arial, Sans-serif">Created by Creative Stall</text><text x="0" y="68" fill="#000000" font-size="5px" font-weight="bold" font-family="'Helvetica Neue', Helvetica, Arial-Unicode, Arial, Sans-serif">from the Noun Project</text></svg>