<svg xmlns="http://www.w3.org/2000/svg" xmlns:xlink="http://www.w3.org/1999/xlink" version="1.1" x="0px" y="0px" viewBox="0 0 100 111.45375" enable-background="new 0 0 100 89.163" xml:space="preserve"><path d="M0.887,59.529c1.075,0.358,5.064,0.79,10.841,0.79s9.766-0.432,10.841-0.79v-0.053c-1.693-0.448-5.907-0.766-10.841-0.766  S2.58,59.028,0.887,59.476V59.529z"/><path d="M18,68.025c1.201,0.399,5.657,0.882,12.109,0.882s10.909-0.483,12.109-0.882v-0.06c-1.891-0.5-6.598-0.855-12.109-0.855  S19.892,67.465,18,67.966V68.025z"/><path d="M49.655,57.789c0,0.591-4.636,1.07-10.354,1.07s-10.354-0.479-10.354-1.07h-0.051c-0.011,0.143-0.029,0.284-0.029,0.428  c0,2.944,2.236,5.502,5.522,6.8c1.464,0.578,3.275,0.551,5.051,0.551c1.709,0,3.184,0.051,4.608-0.487  c3.377-1.276,5.688-3.871,5.688-6.864c0-0.145-0.019-0.286-0.029-0.428H49.655z"/><path d="M29.655,57.447c0.956,0.318,4.506,0.703,9.645,0.703s8.689-0.385,9.645-0.703V57.4c-1.506-0.399-5.256-0.681-9.645-0.681  s-8.139,0.283-9.645,0.681V57.447z"/><path d="M70.947,73.335c0,0.804-6.308,1.456-14.088,1.456S42.77,74.14,42.77,73.335h-0.069c-0.015,0.194-0.04,0.386-0.04,0.582  c0,4.006,3.042,7.487,7.513,9.252c1.992,0.787,4.456,0.75,6.873,0.75c2.326,0,4.332,0.069,6.27-0.663  c4.594-1.736,7.739-5.266,7.739-9.339c0-0.197-0.025-0.388-0.04-0.582H70.947z"/><path d="M43.735,72.871c1.301,0.433,6.131,0.956,13.124,0.956s11.823-0.523,13.124-0.956v-0.065  c-2.05-0.542-7.151-0.927-13.124-0.927s-11.074,0.384-13.124,0.927V72.871z"/><path d="M53.973,65.291c1.075,0.358,5.064,0.79,10.841,0.79c5.777,0,9.766-0.432,10.841-0.79v-0.053  c-1.693-0.448-5.907-0.766-10.841-0.766c-4.934,0-9.148,0.318-10.841,0.766V65.291z"/><path d="M99.891,78.577c0,0.804-6.308,1.456-14.088,1.456s-14.088-0.652-14.088-1.456h-0.069c-0.015,0.194-0.04,0.386-0.04,0.582  c0,4.006,3.042,7.487,7.513,9.252c1.992,0.787,4.456,0.75,6.873,0.75c2.326,0,4.332,0.069,6.27-0.663  c4.594-1.736,7.739-5.266,7.739-9.339c0-0.197-0.025-0.388-0.04-0.582H99.891z"/><path d="M72.679,78.112c1.301,0.433,6.131,0.956,13.124,0.956s11.823-0.523,13.124-0.956v-0.065  c-2.05-0.542-7.151-0.927-13.124-0.927c-5.973,0-11.074,0.384-13.124,0.927V78.112z"/><path d="M94.438,54.495c0,0.556-4.357,1.006-9.733,1.006s-9.733-0.45-9.733-1.006h-0.048c-0.01,0.134-0.028,0.267-0.028,0.402  c0,2.767,2.101,5.172,5.19,6.391c1.376,0.543,3.078,0.518,4.748,0.518c1.607,0,2.993,0.048,4.331-0.458  c3.174-1.199,5.347-3.638,5.347-6.452c0-0.136-0.017-0.268-0.028-0.402H94.438z"/><path d="M75.639,54.174c0.899,0.299,4.235,0.661,9.066,0.661s8.167-0.362,9.066-0.661V54.13c-1.416-0.375-4.94-0.64-9.066-0.64  c-4.126,0-7.65,0.266-9.066,0.64V54.174z"/><circle cx="49.108" cy="11.934" r="11.934"/><path d="M77.938,45.081L68.411,25.59c-0.089-0.173-0.194-0.331-0.297-0.491c-0.123-0.586-0.478-1.127-1.042-1.626  c-0.003-0.144-0.019-0.283-0.056-0.378c-0.108-0.273-0.564-0.783-0.838-0.675l-0.407,0.167c-1.534-0.808-3.29-0.961-4.332,0.524  c-0.406,0.579-0.954,1.213-1.443,1.846L40.255,33.06c-0.273,0.108-0.408,0.417-0.3,0.69c0.108,0.273,0.417,0.408,0.69,0.3  l18.202-6.908c-0.031,0.357,0.077,0.681,0.37,0.959l-17.934,7.36c-0.273,0.108-0.408,0.417-0.3,0.69  c0.037,0.094,0.103,0.164,0.177,0.22c0.018,0.014,0.033,0.025,0.053,0.036c0.08,0.047,0.166,0.078,0.26,0.079  c0.002,0,0.003,0.002,0.005,0.002c0.065,0,0.131-0.012,0.195-0.037L61.57,28.9c0.956,0.096,2.035,0.05,3.027-0.133l2.463,6.571  l-5.894-5.111l-19.092,7.246c-0.191,0.075-0.392,0.113-0.597,0.113c-0.674,0-1.27-0.405-1.516-1.033  c-0.16-0.405-0.152-0.848,0.022-1.247c0.029-0.066,0.083-0.112,0.119-0.173c-0.524-0.114-0.967-0.465-1.17-0.981  c-0.329-0.836,0.083-1.784,0.905-2.107l13.487-5.535c-0.697-0.114-1.404-0.172-2.11-0.172h-4.489  c-9.004,0-15.189,4.036-15.881,6.689l-5.479,21.02h7.371l2.516-9.652v9.652h27.435V43.199l8.989,7.022  c1.791,1.399,4.454,1.357,5.551,0.534C79.424,49.108,78.852,46.861,77.938,45.081z"/><path d="M41.593,73.41l0.013-0.156l0.076-1.016h0.768c0.49-1.015,0.76-2.107,0.76-3.246c0-0.181-0.023-0.358-0.037-0.537h-0.064  c0,0.742-5.82,1.344-12.999,1.344S17.11,69.196,17.11,68.454h-0.064c-0.013,0.179-0.037,0.356-0.037,0.537  c0,3.696,2.807,6.908,6.932,8.537c1.838,0.726,4.112,0.692,6.342,0.692c2.146,0,3.997,0.064,5.785-0.611  c2.328-0.879,4.248-2.26,5.51-3.947C41.584,73.578,41.585,73.493,41.593,73.41z"/><path d="M76.51,65.675h-0.057c0,0.664-5.211,1.203-11.638,1.203c-6.428,0-11.638-0.539-11.638-1.203h-0.057  c-0.012,0.16-0.033,0.319-0.033,0.481c0,1.709,0.68,3.298,1.838,4.64c0.635-0.009,1.28-0.014,1.934-0.014  c5.931,0,11.193,0.378,13.404,0.963l0.817,0.216v0.277h0.955l0.051,0.682c2.706-1.584,4.457-4.016,4.457-6.764  C76.543,65.993,76.522,65.835,76.51,65.675z"/><path d="M15.952,68.372l0.076-1.015h0.875v-0.236l0.817-0.216c0.563-0.149,1.345-0.283,2.287-0.399  c2.121-1.567,3.45-3.72,3.45-6.111c0-0.162-0.021-0.321-0.033-0.481h-0.057c0,0.664-5.211,1.203-11.638,1.203  S0.09,60.578,0.09,59.913H0.033C0.021,60.074,0,60.232,0,60.395c0,3.309,2.513,6.184,6.206,7.643c1.646,0.65,3.681,0.62,5.678,0.62  c1.482,0,2.803,0.012,4.065-0.253L15.952,68.372z"/><text x="0" y="104.163" fill="#000000" font-size="5px" font-weight="bold" font-family="'Helvetica Neue', Helvetica, Arial-Unicode, Arial, Sans-serif">Created by Claire Jones</text><text x="0" y="109.163" fill="#000000" font-size="5px" font-weight="bold" font-family="'Helvetica Neue', Helvetica, Arial-Unicode, Arial, Sans-serif">from the Noun Project</text></svg>