<svg xmlns="http://www.w3.org/2000/svg" xmlns:xlink="http://www.w3.org/1999/xlink" version="1.1" x="0px" y="0px" viewBox="0 0 100 125" enable-background="new 0 0 100 100" xml:space="preserve"><path d="M91.1,83.8h1.4c1.4,0,2.5-1.1,2.5-2.5V40c0-1.4-1.1-2.5-2.5-2.5h-5.7l4.5-4.5l1.6,1.6c1.1,1.1,2.9-0.6,1.8-1.8l-5-5  c-1.1-1.1-2.9,0.6-1.8,1.8l1.6,1.6L85,35.7V21.3c0-3.4-2.8-6.3-6.3-6.3s-6.3,2.8-6.3,6.3v2.5c0,1.6,2.5,1.6,2.5,0v-2.5  c0-2.1,1.7-3.8,3.8-3.8s3.8,1.7,3.8,3.8v14.5L78,31.3l1.6-1.6c1.1-1.1-0.6-2.9-1.8-1.8l-5,5c-1.1,1.1,0.6,2.9,1.8,1.8l1.6-1.6  l4.5,4.5H69.9c-0.6-6.3-6-11.3-12.4-11.3s-11.8,4.9-12.4,11.3H35l2.3-3c0.3-0.4,0.3-0.9,0.1-1.3c-0.2-0.4-0.6-0.7-1.1-0.7H35l2.3-3  c0.3-0.4,0.3-0.9,0.1-1.3c-0.2-0.4-0.6-0.7-1.1-0.7H35l2.3-3c0.3-0.4,0.3-0.9,0.1-1.3c-0.2-0.4-0.6-0.7-1.1-0.7H35l2.3-3  c0.3-0.4,0.3-0.9,0.1-1.3c-0.2-0.4-0.6-0.7-1.1-0.7H13.8c-0.5,0-0.9,0.3-1.1,0.7c-0.2,0.4-0.2,0.9,0.1,1.3l2.3,3h-1.3  c-0.5,0-0.9,0.3-1.1,0.7c-0.2,0.4-0.2,0.9,0.1,1.3l2.3,3h-1.3c-0.5,0-0.9,0.3-1.1,0.7c-0.2,0.4-0.2,0.9,0.1,1.3l2.3,3h-1.3  c-0.5,0-0.9,0.3-1.1,0.7c-0.2,0.4-0.2,0.9,0.1,1.3l2.3,3H7.5C6.1,37.5,5,38.6,5,40v41.3c0,1.4,1.1,2.5,2.5,2.5h1.4l-3.8,9.5  c-0.2,0.4-0.1,0.8,0.1,1.2c0.2,0.3,0.6,0.5,1,0.5h5c0.3,0,0.6-0.1,0.9-0.4L23,83.8h54l10.9,10.9c0.2,0.2,0.6,0.4,0.9,0.4h5  c0,0,0,0,0,0c0.7,0,1.3-0.6,1.3-1.3c0-0.2-0.1-0.5-0.2-0.7L91.1,83.8z M10,78.8V56.3h80v22.5H10z M57.5,28.8c5.1,0,9.3,3.8,9.9,8.8  h-3.8c-0.6-2.8-3.1-5-6.1-5s-5.5,2.2-6.1,5h-3.8C48.2,32.6,52.4,28.8,57.5,28.8z M61,37.5h-7c0.5-1.5,1.9-2.5,3.5-2.5  S60.5,36,61,37.5z M16.3,20h17.5l-1.9,2.5H18.1L16.3,20z M16.3,25h1.3h15h1.3l-1.9,2.5H18.1L16.3,25z M16.3,30h1.3h15h1.3l-1.9,2.5  H18.1L16.3,30z M16.3,35h1.3h15h1.3l-1.9,2.5H18.1L16.3,35z M90,42.5v11.3H10V42.5H90z M10.7,92.5H8.1l3.5-8.8h7.9L10.7,92.5z   M89.3,92.5l-8.8-8.8h7.9l3.5,8.8H89.3z"/><text x="0" y="115" fill="#000000" font-size="5px" font-weight="bold" font-family="'Helvetica Neue', Helvetica, Arial-Unicode, Arial, Sans-serif">Created by Arthur Shlain</text><text x="0" y="120" fill="#000000" font-size="5px" font-weight="bold" font-family="'Helvetica Neue', Helvetica, Arial-Unicode, Arial, Sans-serif">from the Noun Project</text></svg>