<svg xmlns="http://www.w3.org/2000/svg" xmlns:xlink="http://www.w3.org/1999/xlink" version="1.1" x="0px" y="0px" viewBox="0 0 512 640" enable-background="new 0 0 512 512" xml:space="preserve"><g><polygon points="256.015,511.99 99.039,197.972 99.039,511.99 412.961,511.99 412.961,197.972  "/><path d="M256.015,98.13c13.328,0,25.109-6.656,32.201-16.812l124.559,36.437V0.009L288.216,36.478   c-7.092-10.188-18.873-16.843-32.202-16.843c-13.343,0-25.124,6.656-32.217,16.843L99.242,0.009v117.746l124.557-36.437   C230.891,91.476,242.673,98.13,256.015,98.13z"/><path d="M256.015,178.972c-10.843,0-19.624,8.781-19.624,19.625c0,10.843,8.781,19.624,19.624,19.624   c10.828,0,19.609-8.781,19.609-19.624C275.624,187.752,266.843,178.972,256.015,178.972z"/><path d="M256.015,276.25c-10.843,0-19.624,8.781-19.624,19.623c0,10.844,8.781,19.625,19.624,19.625   c10.828,0,19.609-8.781,19.609-19.625C275.624,285.031,266.843,276.25,256.015,276.25z"/><path d="M256.015,373.527c-10.843,0-19.624,8.781-19.624,19.625c0,10.811,8.781,19.623,19.624,19.623   c10.828,0,19.609-8.814,19.609-19.623C275.624,382.309,266.843,373.527,256.015,373.527z"/></g><text x="0" y="527" fill="#000000" font-size="5px" font-weight="bold" font-family="'Helvetica Neue', Helvetica, Arial-Unicode, Arial, Sans-serif">Created by lastspark</text><text x="0" y="532" fill="#000000" font-size="5px" font-weight="bold" font-family="'Helvetica Neue', Helvetica, Arial-Unicode, Arial, Sans-serif">from the Noun Project</text></svg>