<svg xmlns:x="http://ns.adobe.com/Extensibility/1.0/" xmlns:i="http://ns.adobe.com/AdobeIllustrator/10.0/" xmlns:graph="http://ns.adobe.com/Graphs/1.0/" xmlns="http://www.w3.org/2000/svg" xmlns:xlink="http://www.w3.org/1999/xlink" version="1.1" x="0px" y="0px" viewBox="0 0 64 80" enable-background="new 0 0 64 64" xml:space="preserve"><metadata><sfw xmlns="http://ns.adobe.com/SaveForWeb/1.0/"><slices/><sliceSourceBounds height="16384" width="16389" x="-8165" y="-8160" bottomLeftOrigin="true"/></sfw></metadata><g><g><path d="M49,14H19v-3h19c0.553,0,1-0.448,1-1V6c0-0.552-0.447-1-1-1H10C9.448,5,9,5.447,9,6v19c0,3.309,2.691,6,6,6h0.101    c0.399,1.957,1.943,3.5,3.899,3.899v6.27c-2.338,0.789-4,4.321-4,8.832c0,5.131,2.149,9,5,9s5-3.869,5-9    c0-4.511-1.662-8.043-4-8.832v-6.27c1.956-0.398,3.5-1.942,3.899-3.899H49c3.309,0,6-2.691,6-6v-5C55,16.691,52.309,14,49,14z     M17,50c0-3.068,0.929-5.536,2-6.527v13.055C17.929,55.536,17,53.068,17,50z M23,50c0,3.068-0.929,5.536-2,6.527V43.473    C22.071,44.464,23,46.932,23,50z M20,33c-1.302,0-2.401-0.839-2.816-2h5.632C22.402,32.161,21.302,33,20,33z M53,25    c0,2.206-1.794,4-4,4H15c-2.206,0-4-1.794-4-4V7h26v2H18c-0.552,0-1,0.448-1,1v5c0,0.552,0.448,1,1,1h31c2.206,0,4,1.794,4,4V25z"/><path d="M48,19H36c-0.553,0-1,0.448-1,1s0.447,1,1,1h12c0.553,0,1-0.448,1-1S48.553,19,48,19z"/><path d="M48,23H36c-0.553,0-1,0.448-1,1s0.447,1,1,1h12c0.553,0,1-0.448,1-1S48.553,23,48,23z"/></g></g><text x="0" y="79" fill="#000000" font-size="5px" font-weight="bold" font-family="'Helvetica Neue', Helvetica, Arial-Unicode, Arial, Sans-serif">Created by Ralf Schmitzer</text><text x="0" y="84" fill="#000000" font-size="5px" font-weight="bold" font-family="'Helvetica Neue', Helvetica, Arial-Unicode, Arial, Sans-serif">from the Noun Project</text></svg>