<svg xmlns="http://www.w3.org/2000/svg" xmlns:xlink="http://www.w3.org/1999/xlink" version="1.1" x="0px" y="0px" viewBox="0 0 100 125" enable-background="new 0 0 100 100" xml:space="preserve"><g><ellipse fill-rule="evenodd" clip-rule="evenodd" cx="59.173" cy="87.125" rx="7.301" ry="7.308"/><ellipse fill-rule="evenodd" clip-rule="evenodd" cx="30.831" cy="87.125" rx="7.299" ry="7.308"/><path fill-rule="evenodd" clip-rule="evenodd" d="M91.806,26.038H79.81c-0.045,0-0.092,0.002-0.139,0.004   c-0.615,0.023-1.184,0.23-1.648,0.57c-0.023,0.016-0.047,0.031-0.066,0.051c-0.033,0.025-0.068,0.049-0.102,0.074   c-0.438,0.348-0.791,0.811-1.004,1.369L61.458,70.794H24.565l-2.643-6.879H60.03c1.424,0,2.576-1.154,2.576-2.58   c0-1.422-1.152-2.576-2.576-2.576H19.938l-2.643-6.879h47.027c1.424,0,2.578-1.154,2.578-2.578c0-1.426-1.154-2.578-2.578-2.578   h-49.01l-2.809-7.307h56.543c1.422,0,2.576-1.156,2.576-2.58s-1.154-2.58-2.576-2.58h-6.416c2.41-2.074,3.941-5.141,3.941-8.572   c0-6.252-5.068-11.318-11.318-11.318c-2.559,0-4.91,0.857-6.807,2.289c0.096-0.541,0.154-1.094,0.154-1.662   c0-5.299-4.297-9.598-9.596-9.598c-5.301,0-9.598,4.299-9.598,9.598c0,0.857,0.123,1.686,0.334,2.477   c-1.654-1.258-3.709-2.016-5.947-2.016c-5.436,0-9.84,4.408-9.84,9.84c0,3.992,2.381,7.42,5.799,8.963H8.421   c-0.023,0-0.047,0.002-0.072,0H7.644c-1.422,0-2.576,1.156-2.576,2.58c0,0.111,0.02,0.219,0.033,0.328   c-0.049,0.48,0,0.979,0.186,1.465l13.717,35.686c0.492,1.281,1.719,2.066,3.02,2.064c0.002,0,0.004,0,0.006,0H64.11   c0.422,0,0.818-0.1,1.176-0.268c0.777-0.33,1.428-0.961,1.752-1.813l15.234-42.246h9.533c1.66,0,3.006-1.348,3.006-3.008   C94.812,27.384,93.466,26.038,91.806,26.038z M43.888,34.257c0.75-0.693,1.391-1.502,1.879-2.41c0.588,0.9,1.299,1.711,2.111,2.41   H43.888z M30.104,32.841c0.367,0.516,0.787,0.988,1.25,1.416h-3.516C28.659,33.888,29.421,33.413,30.104,32.841z"/></g><text x="0" y="115" fill="#000000" font-size="5px" font-weight="bold" font-family="'Helvetica Neue', Helvetica, Arial-Unicode, Arial, Sans-serif">Created by www.yugudesign.com</text><text x="0" y="120" fill="#000000" font-size="5px" font-weight="bold" font-family="'Helvetica Neue', Helvetica, Arial-Unicode, Arial, Sans-serif">from the Noun Project</text></svg>