<svg xmlns:x="http://ns.adobe.com/Extensibility/1.0/" xmlns:i="http://ns.adobe.com/AdobeIllustrator/10.0/" xmlns:graph="http://ns.adobe.com/Graphs/1.0/" xmlns="http://www.w3.org/2000/svg" xmlns:xlink="http://www.w3.org/1999/xlink" version="1.1" x="0px" y="0px" viewBox="0 0 64 80" enable-background="new 0 0 64 64" xml:space="preserve"><metadata><sfw xmlns="http://ns.adobe.com/SaveForWeb/1.0/"><slices/><sliceSourceBounds height="16385.906" width="16389" x="-8165" y="-8161.906" bottomLeftOrigin="true"/></sfw></metadata><g><g><circle cx="26" cy="16" r="1"/><circle cx="14" cy="16" r="1"/><path d="M13,47h38V23H13V47z M20,25h24c0.553,0,1,0.448,1,1s-0.447,1-1,1H20c-0.552,0-1-0.448-1-1S19.448,25,20,25z"/><circle cx="34" cy="16" r="1"/><circle cx="42" cy="16" r="1"/><circle cx="50" cy="16" r="1"/><path d="M56,9H8c-0.552,0-1,0.448-1,1v42c0,0.553,0.448,1,1,1h6c-0.552,0-1,0.447-1,1s0.448,1,1,1h4c0.552,0,1-0.447,1-1    s-0.448-1-1-1h28c-0.553,0-1,0.447-1,1s0.447,1,1,1h4c0.553,0,1-0.447,1-1s-0.447-1-1-1h6c0.553,0,1-0.447,1-1V10    C57,9.448,56.553,9,56,9z M42,13c1.654,0,3,1.346,3,3s-1.346,3-3,3s-3-1.346-3-3S40.346,13,42,13z M34,13c1.654,0,3,1.346,3,3    s-1.346,3-3,3s-3-1.346-3-3S32.346,13,34,13z M26,13c1.654,0,3,1.346,3,3s-1.346,3-3,3s-3-1.346-3-3S24.346,13,26,13z M14,13    c1.654,0,3,1.346,3,3s-1.346,3-3,3s-3-1.346-3-3S12.346,13,14,13z M53,48c0,0.553-0.447,1-1,1H12c-0.552,0-1-0.447-1-1V22    c0-0.552,0.448-1,1-1h40c0.553,0,1,0.448,1,1V48z M50,19c-1.654,0-3-1.346-3-3s1.346-3,3-3s3,1.346,3,3S51.654,19,50,19z"/></g></g><text x="0" y="79" fill="#000000" font-size="5px" font-weight="bold" font-family="'Helvetica Neue', Helvetica, Arial-Unicode, Arial, Sans-serif">Created by Ralf Schmitzer</text><text x="0" y="84" fill="#000000" font-size="5px" font-weight="bold" font-family="'Helvetica Neue', Helvetica, Arial-Unicode, Arial, Sans-serif">from the Noun Project</text></svg>