<svg xmlns="http://www.w3.org/2000/svg" xmlns:xlink="http://www.w3.org/1999/xlink" version="1.1" x="0px" y="0px" viewBox="0 0 100 125" enable-background="new 0 0 100 100" xml:space="preserve"><path d="M50,7.5C25.2,7.5,5,22.1,5,40c0,1.7,0.2,3.4,0.5,5C5.2,46.6,5,48.3,5,50s0.2,3.4,0.5,5C5.2,56.6,5,58.3,5,60  c0,17.9,20.2,32.5,45,32.5c24.8,0,45-14.6,45-32.5c0-1.7-0.2-3.4-0.5-5c0.4-1.6,0.5-3.3,0.5-5s-0.2-3.4-0.5-5c0.4-1.6,0.5-3.3,0.5-5  C95,22.1,74.8,7.5,50,7.5z M50,87.5c-18.9,0-34.8-9.1-38.9-21.2C18.8,76,33.4,82.5,50,82.5c16.6,0,31.2-6.5,38.9-16.2  C84.8,78.4,68.9,87.5,50,87.5z M50,77.5c-18.9,0-34.8-9.1-38.9-21.2C18.8,66,33.4,72.5,50,72.5c16.6,0,31.2-6.5,38.9-16.2  C84.8,68.4,68.9,77.5,50,77.5z M50,67.5c-22.1,0-40-12.3-40-27.5s17.9-27.5,40-27.5c22.1,0,40,12.3,40,27.5S72.1,67.5,50,67.5z"/><path d="M50,21.3c-15.9,0-28.8,9.3-28.8,20.7c0,11.4,12.9,20.7,28.8,20.7c15.9,0,28.8-9.3,28.8-20.7C78.8,30.5,65.9,21.3,50,21.3z   M50,60.1c-14.5,0-26.3-8.1-26.3-18.2c0-10,11.8-18.2,26.3-18.2c14.5,0,26.3,8.1,26.3,18.2C76.3,51.9,64.5,60.1,50,60.1z"/><text x="0" y="115" fill="#000000" font-size="5px" font-weight="bold" font-family="'Helvetica Neue', Helvetica, Arial-Unicode, Arial, Sans-serif">Created by Arthur Shlain</text><text x="0" y="120" fill="#000000" font-size="5px" font-weight="bold" font-family="'Helvetica Neue', Helvetica, Arial-Unicode, Arial, Sans-serif">from the Noun Project</text></svg>